<?xml version="1.0" standalone="no"?>
<!DOCTYPE svg PUBLIC "-//W3C//DTD SVG 20010904//EN"
 "http://www.w3.org/TR/2001/REC-SVG-20010904/DTD/svg10.dtd">
<svg version="1.0" xmlns="http://www.w3.org/2000/svg"
 width="353.000000pt" height="426.000000pt" viewBox="0 0 353.000000 426.000000"
 preserveAspectRatio="xMidYMid meet">

<g transform="translate(0.000000,426.000000) scale(0.100000,-0.100000)"
fill="#000000" stroke="none">
<path d="M2685 4205 c-24 -49 -27 -62 -18 -86 6 -16 8 -29 3 -29 -11 0 -22
-48 -14 -61 11 -18 25 6 33 57 l7 49 18 -53 c10 -29 24 -56 31 -58 23 -9 129
33 141 55 6 12 14 24 18 28 8 8 66 -47 66 -63 0 -6 7 -17 15 -24 13 -10 15 -9
15 11 -1 93 -132 214 -244 226 l-43 5 -28 -57z"/>
<path d="M2640 4230 c-14 -10 -22 -21 -19 -25 4 -3 20 5 35 19 34 30 21 35
-16 6z"/>
<path d="M2579 4173 c-13 -16 -12 -17 4 -4 9 7 17 15 17 17 0 8 -8 3 -21 -13z"/>
<path d="M2517 4042 c-22 -62 -18 -88 7 -50 11 17 16 41 14 65 l-3 38 -18 -53z"/>
<path d="M1740 4062 c0 -1 7 -14 16 -27 8 -13 14 -36 12 -52 -3 -27 -4 -28
-66 -28 l-63 0 6 -35 c12 -63 34 -86 117 -123 43 -20 100 -50 128 -68 l50 -32
0 -154 c0 -93 4 -153 10 -153 5 0 28 8 51 17 37 14 50 15 103 4 116 -24 143
-63 29 -42 -90 17 -91 15 -36 -41 60 -63 79 -96 64 -111 -7 -7 -18 -5 -37 8
l-27 17 17 -23 c9 -13 16 -29 16 -36 0 -24 -24 -13 -67 29 -23 23 -45 39 -49
36 -3 -4 13 -23 35 -43 38 -35 57 -83 29 -72 -7 2 -24 8 -36 12 -23 7 -23 7
-7 -19 31 -46 -10 -32 -81 29 -69 58 -118 76 -90 33 13 -20 13 -35 0 -118 -7
-52 -14 -107 -14 -122 0 -14 -10 -39 -23 -55 -12 -15 -31 -45 -42 -66 -11 -21
-34 -52 -52 -70 -30 -30 -32 -37 -33 -102 0 -51 -6 -82 -20 -110 -30 -59 -57
-161 -70 -272 -13 -102 -28 -139 -75 -183 -15 -14 -46 -50 -69 -80 -44 -57
-156 -244 -156 -260 0 -5 20 -12 45 -16 38 -5 59 -1 128 26 45 18 102 43 126
56 52 27 68 22 29 -10 -38 -30 -37 -68 1 -95 16 -12 35 -38 41 -59 7 -20 16
-41 20 -45 4 -4 111 99 239 229 l232 236 77 -35 c42 -19 101 -42 130 -50 l52
-16 17 27 c38 61 54 72 107 72 106 0 288 -45 351 -86 15 -10 34 -33 42 -52
l14 -34 57 7 c70 9 75 12 68 39 -3 13 1 31 9 42 21 27 19 32 -22 53 -31 15
-318 112 -398 135 -11 3 25 3 80 1 105 -5 292 -44 332 -70 25 -17 59 -20 67
-6 11 17 -33 58 -85 80 -70 31 -136 43 -254 47 -55 3 -110 7 -122 9 -36 8 -30
48 12 79 19 15 35 34 35 42 0 8 10 14 25 14 16 0 41 15 68 40 l42 41 -24 17
c-14 9 -86 42 -161 73 -75 31 -154 68 -176 82 -21 14 -51 29 -66 32 -16 4 -28
11 -28 15 0 5 15 27 34 49 19 23 37 49 40 59 9 29 59 51 140 64 64 10 76 14
70 27 -15 34 -16 79 -2 92 8 7 12 23 10 36 -2 13 1 23 7 23 6 0 11 8 11 18 0
9 14 37 30 61 50 73 41 78 -31 21 -28 -22 -55 -40 -60 -40 -12 0 -11 22 1 55
13 34 41 341 33 363 -4 9 -19 33 -35 52 -36 44 -37 82 -2 105 25 16 26 18 19
97 -5 58 -4 79 4 74 6 -4 11 -24 11 -44 0 -63 12 -112 26 -112 29 0 7 187 -26
220 -23 23 -25 20 -34 -47 -4 -24 -14 -58 -23 -77 l-16 -35 -57 52 c-31 29
-97 96 -145 150 -119 131 -115 130 -437 131 -137 1 -248 0 -248 -2z m778 -324
c19 -19 14 -30 -8 -18 -11 6 -20 15 -20 20 0 14 14 12 28 -2z m72 -1618 c0 -5
-9 -10 -20 -10 -11 0 -20 5 -20 10 0 6 9 10 20 10 11 0 20 -4 20 -10z"/>
<path d="M2864 3977 c-7 -19 13 -66 31 -73 21 -8 47 15 43 39 -4 25 -28 35
-28 12 0 -9 -4 -13 -10 -10 -5 3 -10 15 -10 26 0 22 -18 26 -26 6z"/>
<path d="M1470 3966 c0 -23 -14 -26 -48 -14 -27 10 -34 9 -51 -7 -29 -25 -26
-59 7 -103 16 -20 57 -77 93 -127 155 -218 350 -464 380 -479 27 -13 30 -13
25 -1 -8 22 14 18 41 -7 13 -12 25 -19 29 -16 6 7 -45 108 -55 108 -3 0 -14
15 -24 33 -18 33 -75 71 -63 41 3 -7 9 -21 12 -29 13 -31 -34 -15 -55 19 -25
40 -26 47 -6 40 29 -11 15 30 -40 126 -86 149 -124 230 -143 309 -10 43 -26
83 -39 97 -24 26 -63 32 -63 10z m380 -678 c0 -6 -7 -5 -15 2 -8 7 -15 17 -15
22 0 6 7 5 15 -2 8 -7 15 -17 15 -22z"/>
<path d="M2860 3827 c0 -19 26 -40 40 -32 13 8 5 22 -21 35 -15 8 -19 7 -19
-3z"/>
<path d="M2790 3796 c0 -8 5 -18 10 -21 6 -3 10 -15 10 -25 0 -13 5 -17 14
-14 25 9 26 33 4 54 -26 24 -38 25 -38 6z"/>
<path d="M1980 3185 c7 -9 15 -13 17 -11 7 7 -7 26 -19 26 -6 0 -6 -6 2 -15z"/>
<path d="M2932 1698 c-47 -57 -67 -190 -40 -264 10 -27 8 -52 -10 -144 -18
-91 -20 -115 -10 -133 l13 -22 3 25 c2 14 12 36 22 50 9 14 20 39 24 55 12 48
54 113 130 199 163 186 171 210 18 55 -102 -103 -147 -136 -122 -90 5 11 10
30 10 43 0 13 7 36 15 52 25 48 15 115 -27 169 -12 16 -16 17 -26 5z"/>
<path d="M1353 1630 c-13 -5 -23 -15 -24 -22 0 -7 -32 -33 -70 -58 -39 -25
-90 -66 -114 -92 -24 -27 -52 -48 -63 -48 -11 0 -22 -7 -25 -15 -7 -17 55
-145 82 -169 20 -18 22 -17 78 14 107 60 178 113 250 186 100 101 107 144 25
158 -20 3 -48 17 -61 31 -24 26 -42 30 -78 15z m-58 -180 c7 -21 0 -40 -15
-40 -13 0 -32 39 -25 50 10 17 33 11 40 -10z"/>
<path d="M2844 1126 c-8 -20 -1 -47 11 -47 6 0 16 9 23 20 12 17 11 21 -7 31
-17 9 -22 8 -27 -4z"/>
<path d="M960 1109 c-30 -11 -106 -31 -169 -45 -163 -37 -214 -62 -335 -166
-6 -5 -3 -8 7 -8 10 0 37 18 60 40 59 54 176 107 262 119 67 10 194 48 232 70
27 16 4 12 -57 -10z"/>
<path d="M2833 1048 c-5 -7 -17 -34 -27 -59 -10 -27 -26 -51 -41 -59 -40 -22
-40 -45 -1 -92 44 -51 39 -61 -10 -19 -42 38 -51 34 -89 -42 -30 -61 -31 -83
-6 -97 11 -5 22 -18 26 -29 4 -13 12 -17 29 -14 16 3 31 -2 45 -16 12 -12 29
-21 40 -21 40 0 309 -144 319 -171 2 -5 12 -9 21 -9 10 0 46 -11 80 -25 41
-17 90 -28 144 -31 99 -7 121 -13 92 -24 -80 -33 -280 28 -475 146 -30 18
-100 49 -155 69 -55 21 -109 46 -121 56 -11 10 -33 19 -48 19 -50 0 -14 -24
122 -81 70 -29 159 -70 197 -90 224 -120 380 -165 474 -137 59 18 73 40 40 67
-19 15 -25 17 -27 5 -4 -17 -12 -17 -34 0 -26 20 -22 26 17 26 54 0 43 23 -27
56 -117 55 -233 193 -254 302 -4 21 -19 43 -39 59 -30 24 -32 28 -17 40 15 11
12 12 -23 13 -22 0 -64 -7 -94 -15 -30 -8 -58 -12 -62 -9 -5 3 -13 23 -19 44
-9 34 -8 46 10 81 21 40 22 41 42 22 15 -13 22 -15 25 -5 3 6 14 12 26 13 42
1 -34 26 -104 33 -49 5 -68 4 -76 -6z m302 -368 c3 -5 2 -10 -4 -10 -5 0 -13
5 -16 10 -3 6 -2 10 4 10 5 0 13 -4 16 -10z m-28 -26 c-3 -3 -12 -4 -19 -1 -8
3 -5 6 6 6 11 1 17 -2 13 -5z m77 -30 c23 -9 9 -24 -21 -24 -21 0 -24 2 -13
15 14 17 13 17 34 9z m26 -135 c0 -6 -4 -7 -10 -4 -5 3 -10 11 -10 16 0 6 5 7
10 4 6 -3 10 -11 10 -16z"/>
<path d="M252 828 c-7 -7 -12 -18 -12 -25 0 -19 -14 -16 -28 8 -12 18 -19 20
-65 14 -29 -4 -58 -14 -65 -23 -18 -24 -15 -87 13 -228 14 -69 24 -129 21
-131 -2 -3 -7 5 -11 16 -3 11 -22 39 -40 61 -19 23 -37 58 -40 78 -4 20 -11
48 -16 62 -21 57 2 -93 26 -167 14 -46 25 -102 25 -136 0 -130 57 -277 123
-317 39 -24 65 -25 96 -4 23 16 23 19 16 133 l-6 116 41 75 c36 66 40 70 35
38 -3 -20 -1 -39 4 -42 12 -7 31 47 31 88 0 50 13 63 47 46 15 -8 32 -16 37
-18 4 -3 4 4 -2 14 -8 14 -7 23 5 36 21 24 4 65 -50 117 -33 32 -39 43 -33 65
7 30 36 35 36 6 0 -18 1 -18 34 3 l33 22 -26 14 c-14 8 -45 31 -68 52 -38 35
-48 39 -96 39 -29 0 -58 -5 -65 -12z m-31 -95 c-8 -15 -10 -15 -11 -2 0 17 10
32 18 25 2 -3 -1 -13 -7 -23z m-86 -542 c8 -24 33 -68 55 -97 26 -35 36 -54
26 -54 -39 0 -111 130 -122 222 -9 81 7 111 18 33 4 -33 15 -80 23 -104z"/>
<path d="M0 731 c0 -5 5 -13 10 -16 5 -3 10 -2 10 4 0 5 -4 13 -10 16 -5 3
-10 2 -10 -4z"/>
</g>
</svg>
